<?xml version="1.0" encoding="UTF-8"?>
<svg xmlns="http://www.w3.org/2000/svg" xmlns:xlink="http://www.w3.org/1999/xlink" version="1.1" viewBox="0 0 2000 676">
  <defs>
    <style>
      .cls-1 {
        fill: url(#linear-gradient-5);
      }

      .cls-2 {
        fill: url(#linear-gradient-4);
      }

      .cls-3 {
        fill: url(#linear-gradient-3);
      }

      .cls-4 {
        fill: url(#linear-gradient-2);
      }

      .cls-5 {
        fill: url(#linear-gradient);
      }

      .cls-6 {
        fill: #0f1d2f;
      }

      .cls-7 {
        fill: #151339;
      }
    </style>
    <linearGradient id="linear-gradient" x1="-1803.6" y1="2478.6" x2="-1787.5" y2="2474.6" gradientTransform="translate(38062.6 -165205.1) scale(20.9 66.8)" gradientUnits="userSpaceOnUse">
      <stop offset="0" stop-color="#eeb32e"/>
      <stop offset="1" stop-color="#e2215b"/>
    </linearGradient>
    <linearGradient id="linear-gradient-2" x1="-1805.9" y1="2467.4" x2="-1799.8" y2="2473.3" gradientTransform="translate(38035.2 -205993.8) scale(20.9 83.5)" gradientUnits="userSpaceOnUse">
      <stop offset="0" stop-color="#eeb32e"/>
      <stop offset="1" stop-color="#e2215b"/>
    </linearGradient>
    <linearGradient id="linear-gradient-3" x1="-1814.5" y1="2463.3" x2="-1807.1" y2="2469.2" gradientTransform="translate(38006 -246784.9) scale(20.9 100.2)" gradientUnits="userSpaceOnUse">
      <stop offset="0" stop-color="#eeb32e"/>
      <stop offset="1" stop-color="#e2215b"/>
    </linearGradient>
    <linearGradient id="linear-gradient-4" x1="-1812.3" y1="2544" x2="-1799.4" y2="2537.5" gradientTransform="translate(30205.6 -67693.1) scale(16.7 26.7)" gradientUnits="userSpaceOnUse">
      <stop offset="0" stop-color="#eeb32e"/>
      <stop offset="1" stop-color="#e2215b"/>
    </linearGradient>
    <linearGradient id="linear-gradient-5" x1="-1438.7" y1="1868.3" x2="-1425.9" y2="1861.8" gradientTransform="translate(15326.1 -29037) scale(9.8 15.6)" gradientUnits="userSpaceOnUse">
      <stop offset="0" stop-color="#eeb32e"/>
      <stop offset="1" stop-color="#e2215b"/>
    </linearGradient>
  </defs>
  <!-- Generator: Adobe Illustrator 28.6.0, SVG Export Plug-In . SVG Version: 1.2.0 Build 709)  -->
  <g>
    <g id="Layer_1">
      <g id="Group_111">
        <path id="Path_38" class="cls-7" d="M477.1,282.5l-140.4,84.3-56.2-80.3L146.8,95.6c5.4-11.4,13.8-21.2,24.2-28.3,0,0,0,0,0,0h0s0,0,.1,0l6.2-3.7L280.5,1.6l196.6,280.8Z"/>
        <path id="Path_39" class="cls-7" d="M673.6,282.5l-140.4,84.3-119.9-171.3-70-100c5.4-11.5,13.9-21.3,24.5-28.4,0,0,.1,0,.2-.1l6-3.6s0,0,0,0h0L477,1.6l196.6,280.8Z"/>
        <path id="Path_41" class="cls-5" d="M673.6,1.7v325.4c0,24.6-12.8,47.3-33.8,60.1l-106.6,64V122.5c1-23.3,13.6-44.6,33.6-56.8,0,0,0,0,.1,0,0,0,.2-.1.3-.2L673.6,1.7Z"/>
        <path id="Path_42" class="cls-4" d="M477,1.7v437.7c0,24.1-12.4,46.6-32.8,59.4l-3.2,1.9-.7.4-103.7,62.2V124c0-.5,0-1.1,0-1.6,1-22.3,12.6-42.9,31.2-55.2l6.2-3.7L477,1.7Z"/>
        <path id="Path_43" class="cls-3" d="M280.5,1.7v550.1c0,23.9-12.2,46.2-32.4,59.1l-3.9,2.3c-.1,0-.3.2-.5.3l-103.6,62.2V125.8c0-10.4,2.3-20.8,6.8-30.2,5.4-11.4,13.8-21.2,24.2-28.3,0,0,0,0,0,0h0s0,0,.1,0l6.2-3.7L280.5,1.7Z"/>
        <g id="Group_36">
          <path id="Path_40" class="cls-2" d="M112,103.5v72.5c0,24.6-12.8,47.4-33.8,60.1l-50.8,30.5L-.4,283.2v-72.6c0-24.5,12.8-47.3,33.7-60,0,0,.2-.1.3-.2l50.6-30.4,27.7-16.6Z"/>
        </g>
      </g>
      <path id="Path_6418" class="cls-6" d="M951.3,392c-11,2.7-25.5,5.7-43.5,8.7-20.7,3.3-41.6,4.8-62.6,4.6-17.8.5-35.4-2.5-52-9-13.3-5.5-25-14.2-33.9-25.5-8.8-11.5-15.1-24.8-18.5-38.9-3.9-16.3-5.8-32.9-5.7-49.7v-150.3h47.9v140c0,32.6,5.2,55.9,15.5,70,10.3,14.1,27.6,21.1,52,21.1s10.5-.2,16-.5c5.5-.3,10.6-.8,15.5-1.3,4.8-.5,9.2-1,13.1-1.6,2.9-.3,5.7-.9,8.5-1.8v-226h47.9v259.9ZM1098.6,404.9c-29.5-.7-50.4-7-62.8-19-12.4-12-18.5-30.7-18.5-56.1V8.5l47.9-8.2v321.7c-.1,6.6.5,13.2,2.1,19.6,1.1,4.6,3.4,8.9,6.7,12.4,3.5,3.3,7.7,5.7,12.4,7,6.2,1.8,12.6,3.1,19,3.9l-6.7,40.1ZM1188.1,132.1h101.4v40.1h-101.4v123.5c-.2,11.1.8,22.3,3.1,33.2,1.5,7.5,4.6,14.5,9.3,20.6,4,4.9,9.4,8.6,15.5,10.6,7,2.2,14.3,3.2,21.6,3.1,11.8.4,23.5-1.3,34.7-4.9,8.8-3.3,14.8-5.6,18.3-6.9l9.3,39.6c-8.2,3.6-16.6,6.6-25.2,9-13.4,3.8-27.3,5.6-41.2,5.4-15.3.5-30.6-1.9-45.1-6.9-11.3-4.2-21.1-11.4-28.6-20.9-7.6-10.1-12.8-21.8-15.2-34.2-3.1-15.5-4.6-31.3-4.4-47.1V57.5l47.9-8.2v82.8ZM1382.7,399.7h-47.9V132.1h47.9v267.7Z"/>
      <path id="Path_6417" class="cls-6" d="M1545.1,404.9c-29.5-.7-50.4-7-62.8-19-12.4-12-18.5-30.7-18.5-56.1V8.5l47.9-8.2v321.7c-.1,6.6.5,13.2,2.1,19.6,1.1,4.6,3.4,8.9,6.7,12.4,3.5,3.3,7.7,5.7,12.4,7,6.2,1.8,12.6,3.1,19,3.9l-6.7,40.1ZM1680.4,365.2c11.3,0,21.4-.3,30.1-.8,7.4-.3,14.7-1.3,21.9-2.8v-79.8c-5.3-2.2-11-3.7-16.7-4.4-9.3-1.3-18.7-1.9-28.1-1.8-7.6,0-15.3.6-22.9,1.6-7.7.9-15.2,3.1-22.1,6.4-6.5,3.1-12.3,7.7-16.7,13.4-4.7,6.5-7.1,14.4-6.7,22.4,0,17.2,5.5,29.1,16.5,35.8,13.7,7.3,29.2,10.8,44.7,10h0ZM1676.3,125.4c16.5-.4,33,2.1,48.6,7.5,12.2,4.3,23.2,11.6,31.9,21.1,8.2,9.3,14.1,20.4,17.2,32.4,3.6,13.5,5.3,27.5,5.2,41.4v167.3c-4.1.7-9.9,1.6-17.2,2.8-7.4,1.2-15.7,2.3-25,3.4-9.3,1-19.3,2-30.1,2.8-10.8.9-21.5,1.3-32.2,1.3-14,.1-28-1.4-41.7-4.6-11.8-2.7-23-7.7-33-14.7-9.4-6.8-16.8-16-21.6-26.5-5.5-12.5-8.1-26-7.7-39.6-.4-13.3,2.7-26.4,9-38.1,5.9-10.5,14.3-19.3,24.5-25.7,11.1-6.8,23.3-11.7,36-14.4,14.2-3.1,28.7-4.7,43.3-4.6,4.8,0,9.8.3,14.9.8,5.2.5,10,1.2,14.7,2.1,4.6.9,8.7,1.6,12.1,2.3,3.4.7,5.8,1.2,7.2,1.6v-13.4c0-7.9-.9-15.7-2.6-23.4-1.6-7.4-4.8-14.5-9.3-20.6-4.8-6.3-11.1-11.2-18.3-14.4-9.5-3.9-19.8-5.8-30.1-5.4-13.9-.2-27.8,1-41.4,3.4-9,1.5-17.9,3.8-26.5,6.9l-5.7-39.6c10-3.8,20.3-6.4,30.9-8,15.4-2.7,31.1-4,46.8-3.9h0ZM1887.9,132h101.4v40.1h-101.4v123.5c-.2,11.1.8,22.3,3.1,33.2,1.5,7.5,4.6,14.5,9.3,20.6,4,4.9,9.4,8.6,15.5,10.6,7,2.2,14.3,3.2,21.6,3.1,11.8.4,23.5-1.3,34.7-4.9,8.8-3.3,14.8-5.6,18.3-6.9l9.3,39.6c-8.2,3.6-16.6,6.6-25.2,9-13.4,3.8-27.3,5.6-41.2,5.4-15.3.5-30.6-1.9-45.1-6.9-11.3-4.2-21.1-11.4-28.6-20.9-7.6-10.1-12.8-21.8-15.2-34.2-3.1-15.5-4.6-31.3-4.4-47.1V57.5l47.9-8.2v82.8Z"/>
      <path id="Path_6419" class="cls-1" d="M1399.8.3v42.3c0,14.3-7.5,27.6-19.7,35.1l-29.6,17.8-16.2,9.7v-42.4c0-14.3,7.5-27.6,19.7-35,0,0,.1,0,.2,0l29.5-17.7,16.2-9.7Z"/>
    </g>
  </g>
</svg>