<?xml version="1.0" encoding="UTF-8"?>
<svg xmlns="http://www.w3.org/2000/svg" xmlns:xlink="http://www.w3.org/1999/xlink" version="1.1" viewBox="0 0 2000 676">
  <defs>
    <style>
      .cls-1 {
        fill: url(#linear-gradient-5);
      }

      .cls-2 {
        fill: url(#linear-gradient-4);
      }

      .cls-3 {
        fill: url(#linear-gradient-3);
      }

      .cls-4 {
        fill: url(#linear-gradient-2);
      }

      .cls-5 {
        fill: url(#linear-gradient);
      }

      .cls-6 {
        fill: #fff;
      }

      .cls-7 {
        fill: #151339;
      }
    </style>
    <linearGradient id="linear-gradient" x1="-3279.2" y1="234.4" x2="-3263.2" y2="238.5" gradientTransform="translate(68886.3 16093.6) scale(20.9 -66.8)" gradientUnits="userSpaceOnUse">
      <stop offset="0" stop-color="#eeb32e"/>
      <stop offset="1" stop-color="#e2215b"/>
    </linearGradient>
    <linearGradient id="linear-gradient-2" x1="-3280.1" y1="254.6" x2="-3274" y2="248.7" gradientTransform="translate(68859 21146.5) scale(20.9 -83.5)" gradientUnits="userSpaceOnUse">
      <stop offset="0" stop-color="#eeb32e"/>
      <stop offset="1" stop-color="#e2215b"/>
    </linearGradient>
    <linearGradient id="linear-gradient-3" x1="-3289.1" y1="262.8" x2="-3281.7" y2="256.8" gradientTransform="translate(68829.8 26196.9) scale(20.9 -100.2)" gradientUnits="userSpaceOnUse">
      <stop offset="0" stop-color="#eeb32e"/>
      <stop offset="1" stop-color="#e2215b"/>
    </linearGradient>
    <linearGradient id="linear-gradient-4" x1="-3267.3" y1="122.1" x2="-3254.5" y2="128.6" gradientTransform="translate(54524.9 3529.3) scale(16.7 -26.7)" gradientUnits="userSpaceOnUse">
      <stop offset="0" stop-color="#eeb32e"/>
      <stop offset="1" stop-color="#e2215b"/>
    </linearGradient>
    <linearGradient id="linear-gradient-5" x1="-2830.7" y1="739.8" x2="-2817.9" y2="746.4" gradientTransform="translate(28954.8 11718) scale(9.8 -15.6)" gradientUnits="userSpaceOnUse">
      <stop offset="0" stop-color="#eeb32e"/>
      <stop offset="1" stop-color="#e2215b"/>
    </linearGradient>
  </defs>
  <!-- Generator: Adobe Illustrator 28.6.0, SVG Export Plug-In . SVG Version: 1.2.0 Build 709)  -->
  <g>
    <g id="Layer_1">
      <g id="Layer_1-2" data-name="Layer_1">
        <g id="Group_111">
          <path id="Path_38" class="cls-7" d="M477.2,282.5l-140.3,84.3-56.2-80.3L147,95.5c5.4-11.4,13.8-21.2,24.2-28.3h0l6.3-3.7L280.5,1.6l196.5,280.8h.1Z"/>
          <path id="Path_39" class="cls-7" d="M673.7,282.5l-140.3,84.3-119.8-171.2-70-99.9c5.4-11.5,13.9-21.3,24.5-28.3h.1l6-3.6h0L477.2,2l196.5,280.8v-.3Z"/>
          <path id="Path_41" class="cls-5" d="M673.7,1.7v325.3c0,24.6-12.8,47.4-33.9,60.1l-106.6,63.9V122.5c1-23.3,13.7-44.7,33.6-56.8h0s.1,0,.3-.1L673.6,1.7h.1Z"/>
          <path id="Path_42" class="cls-4" d="M477,1.7v437.6c0,24.2-12.4,46.5-32.9,59.5l-3.1,2-.7.4-103.8,62.2V122.5c1-22.3,12.5-42.8,31.2-55.2l6.1-3.7L476.9,1.8h.1Z"/>
          <path id="Path_43" class="cls-3" d="M280.5,1.7v550.1c0,23.9-12.2,46.3-32.3,59.2l-4,2.3c-.1,0-.3.1-.6.3l-103.6,62.2V125.8c0-10.4,2.3-20.8,6.8-30.2,5.4-11.4,13.8-21.2,24.2-28.3h0l6.3-3.7L280.3,1.8h.1Z"/>
          <g id="Group_36">
            <path id="Path_40" class="cls-2" d="M112,103.5v72.6c0,24.6-12.8,47.4-33.9,60.1l-50.8,30.5L-.5,283.2v-72.6c0-24.5,12.8-47.2,33.7-60.1,0,0,.3,0,.3-.1l50.5-30.3,27.8-16.7h.1Z"/>
          </g>
        </g>
        <path id="Path_6418" class="cls-6" d="M951.4,391.9c-11,2.7-25.5,5.7-43.5,8.7-20.6,3.3-41.6,4.8-62.6,4.7-17.8.6-35.4-2.6-51.9-9-13.2-5.4-24.9-14.2-33.9-25.5-8.8-11.5-15.1-24.8-18.5-38.9-4-16.2-5.8-32.9-5.7-49.7v-150.3h47.8v140c0,32.6,5.1,55.9,15.5,70s27.6,21.1,51.9,21.1,10.4-.1,15.9-.6c5.6-.3,10.7-.7,15.5-1.3s9.3-1,13.1-1.6c2.8-.3,5.7-.9,8.5-1.9v-226h47.8v259.9h0ZM1098.5,404.9c-29.5-.7-50.4-7-62.8-19.1-12.4-12.1-18.5-30.7-18.5-56.1V8.5l47.8-8.3v321.6c0,6.5.6,13.1,2.1,19.5,1.1,4.7,3.4,8.8,6.7,12.4,3.4,3.3,7.7,5.7,12.4,7,6.3,1.7,12.7,3,19.1,3.8l-6.7,40.1h-.1ZM1188.2,132.1h101.3v40.1h-101.3v123.5c-.3,11.1.9,22.3,3.1,33.2,1.4,7.5,4.7,14.5,9.3,20.6,4,5,9.4,8.5,15.5,10.5,7,2.1,14.2,3.3,21.6,3.1,11.8.4,23.5-1.3,34.7-4.8,8.8-3.3,14.8-5.6,18.2-7l9.3,39.7c-8.1,3.6-16.7,6.7-25.2,9-13.4,3.8-27.3,5.6-41.1,5.4-15.4.4-30.6-1.9-45.1-7-11.2-4.3-21.1-11.4-28.6-20.8-7.5-10.1-12.8-21.8-15.2-34.2-3.1-15.5-4.6-31.3-4.4-47.1V57.6l47.8-8.3v82.8h.1ZM1382.7,399.8h-47.8V132.1h47.8v267.7Z"/>
        <path id="Path_6417" class="cls-6" d="M1545.1,404.9c-29.5-.7-50.4-7-62.8-19.1-12.4-12.1-18.5-30.7-18.5-56.1V8.5l47.8-8.3v321.6c0,6.5.6,13.1,2,19.5,1.1,4.7,3.4,8.8,6.7,12.4,3.4,3.3,7.7,5.7,12.4,7,6.3,1.7,12.7,3,19.1,3.8l-6.7,40.1h0ZM1680.5,365.2c11.4,0,21.3-.3,30.2-.7,7.4-.3,14.7-1.3,21.9-2.8v-79.8c-5.4-2.3-11-3.7-16.8-4.4-9.3-1.3-18.6-1.9-28-1.9s-15.2.6-22.9,1.6c-7.7.9-15.2,3.1-22.2,6.4-6.5,3.1-12.2,7.7-16.8,13.4-4.7,6.4-7.1,14.4-6.7,22.3,0,17.2,5.6,29,16.5,35.7,13.7,7.4,29.2,10.8,44.7,10h0v.3ZM1676.3,125.4c16.5-.4,33,2.1,48.7,7.4,12.2,4.3,23.2,11.5,31.9,21.1,8.3,9.3,14.1,20.5,17.2,32.4,3.6,13.5,5.3,27.5,5.1,41.4v167.2c-4.1.7-9.8,1.6-17.2,2.8s-15.7,2.3-24.9,3.4c-9.3,1-19.4,2-30.2,2.8-10.8.9-21.5,1.3-32.2,1.3s-28-1.4-41.7-4.7c-11.8-2.7-23.1-7.7-33-14.7-9.4-6.8-16.8-15.9-21.6-26.5-5.4-12.5-8.1-26-7.7-39.7-.3-13.2,2.7-26.3,9-38.1,5.8-10.5,14.2-19.4,24.5-25.8,11.1-6.8,23.3-11.7,36-14.4,14.2-3.1,28.7-4.7,43.3-4.6,4.8,0,9.8.3,14.9.7,5.1.6,10.1,1.1,14.7,2.1,4.7.9,8.7,1.6,12.1,2.3s5.8,1.1,7.3,1.6v-13.4c0-7.8-.9-15.7-2.6-23.5-1.6-7.4-4.7-14.5-9.3-20.6-4.8-6.3-11.1-11.2-18.2-14.4-9.5-4-19.8-5.8-30.2-5.4-13.9-.1-27.8,1-41.4,3.4-9,1.4-17.9,3.8-26.5,7l-5.7-39.7c10-3.7,20.4-6.4,30.9-8,15.4-2.7,31-4,46.8-3.8h0ZM1887.8,132.1h101.3v40.1h-101.3v123.5c-.3,11.1.9,22.3,3.1,33.2,1.4,7.5,4.7,14.5,9.3,20.6,4,5,9.4,8.5,15.5,10.5,7,2.1,14.2,3.3,21.6,3.1,11.8.4,23.5-1.3,34.7-4.8,8.8-3.3,14.8-5.6,18.2-7l9.3,39.7c-8.1,3.6-16.7,6.7-25.2,9-13.4,3.8-27.3,5.6-41.1,5.4-15.4.4-30.6-1.9-45.1-7-11.2-4.3-21.1-11.4-28.6-20.8-7.5-10.1-12.8-21.8-15.2-34.2-3.1-15.5-4.6-31.3-4.4-47.1V57.6l47.8-8.3v82.8h.1Z"/>
        <path id="Path_6419" class="cls-1" d="M1399.8.3v42.4c0,14.4-7.5,27.6-19.8,35l-29.6,17.8-16.2,9.7v-42.4c0-14.4,7.4-27.6,19.6-35h.1l29.5-17.6,16.2-9.7h.1Z"/>
      </g>
    </g>
  </g>
</svg>